<svg width="24" height="24" viewBox="0 0 24 24" fill="none" xmlns="http://www.w3.org/2000/svg">
<g clip-path="url(#clip0)">
<path d="M20.2275 2.1465C20.6385 1.73169 21.1969 1.49643 21.7808 1.49213C22.3647 1.48782 22.9266 1.71483 23.3436 2.12354C23.7607 2.53225 23.999 3.08942 24.0064 3.67329C24.0139 4.25716 23.79 4.82025 23.3835 5.23949L11.6235 19.941C11.4215 20.1585 11.1777 20.3331 10.9067 20.4543C10.6357 20.5755 10.3431 20.6409 10.0463 20.6465C9.74945 20.6521 9.45455 20.5978 9.17918 20.4869C8.90381 20.376 8.65361 20.2107 8.44352 20.001L0.646519 12.207C0.232185 11.7925 -0.000506799 11.2303 -0.000366147 10.6442C-0.000225495 10.0581 0.232736 9.49608 0.647269 9.08175C1.0618 8.66741 1.62395 8.43472 2.21005 8.43486C2.79615 8.435 3.35819 8.66796 3.77252 9.08249L9.93902 15.2505L20.169 2.2155C20.1876 2.19178 20.2076 2.16923 20.229 2.148L20.2275 2.1465Z" fill="white"/>
</g>
<defs>
<clipPath id="clip0">
<rect width="24" height="24" fill="white"/>
</clipPath>
</defs>
</svg>
